<svg width="25" height="19" viewBox="0 0 25 19" fill="none" xmlns="http://www.w3.org/2000/svg">
<path d="M0.591219 4.824C0.687219 3.336 1.25522 2.176 2.29522 1.344C3.35122 0.511999 4.69522 0.0959988 6.32722 0.0959988C7.44722 0.0959988 8.41522 0.295999 9.23122 0.696C10.0472 1.096 10.6632 1.64 11.0792 2.328C11.4952 3.016 11.7032 3.792 11.7032 4.656C11.7032 5.648 11.4392 6.496 10.9112 7.2C10.3832 7.904 9.75122 8.376 9.01522 8.616V8.712C9.95922 9 10.6952 9.528 11.2232 10.296C11.7512 11.048 12.0152 12.016 12.0152 13.2C12.0152 14.144 11.7992 14.984 11.3672 15.72C10.9352 16.456 10.2952 17.04 9.44722 17.472C8.59922 17.888 7.58322 18.096 6.39922 18.096C4.67122 18.096 3.24722 17.656 2.12722 16.776C1.02322 15.88 0.431219 14.6 0.351219 12.936H2.99122C3.05522 13.784 3.38322 14.48 3.97522 15.024C4.56722 15.552 5.36722 15.816 6.37522 15.816C7.35122 15.816 8.10322 15.552 8.63122 15.024C9.15922 14.48 9.42322 13.784 9.42322 12.936C9.42322 11.816 9.06322 11.024 8.34322 10.56C7.63922 10.08 6.55122 9.84 5.07922 9.84H4.45522V7.584H5.10322C6.39922 7.568 7.38322 7.352 8.05522 6.936C8.74322 6.52 9.08722 5.864 9.08722 4.968C9.08722 4.2 8.83922 3.592 8.34322 3.144C7.84722 2.68 7.14322 2.448 6.23122 2.448C5.33522 2.448 4.63922 2.68 4.14322 3.144C3.64722 3.592 3.35122 4.152 3.25522 4.824H0.591219ZM17.9852 0.24V18H15.2492V0.24H17.9852Z" fill="white"/>
<path d="M22.6813 18.168C22.1853 18.168 21.7693 18 21.4333 17.664C21.0973 17.328 20.9293 16.912 20.9293 16.416C20.9293 15.92 21.0973 15.504 21.4333 15.168C21.7693 14.832 22.1853 14.664 22.6813 14.664C23.1613 14.664 23.5693 14.832 23.9053 15.168C24.2413 15.504 24.4093 15.92 24.4093 16.416C24.4093 16.912 24.2413 17.328 23.9053 17.664C23.5693 18 23.1613 18.168 22.6813 18.168Z" fill="#6C7275"/>
</svg>
